<svg aria-hidden="true" style="position: absolute; width: 0; height: 0; overflow: hidden;" version="1.1" xmlns="http://www.w3.org/2000/svg" xmlns:xlink="http://www.w3.org/1999/xlink">
<defs>
<symbol id="icon-Logo1" viewBox="0 0 56 32">
<path d="M26.288 3.489h-0.068l-0.331-0.016h-0.241c-0.242 0.001-0.48 0.009-0.717 0.023l0.035-0.002c-1.91 0.105-3.777 0.582-5.514 1.406l-0.226 0.105v11.625l0.53-0.184c1.701-0.612 3.663-0.977 5.707-1.002l0.011-0v1.527l-0.556 0.016h-0.042c-2.645 0.147-5.090 0.878-7.249 2.064l0.088-0.044v-14.904c1.177-0.698 2.538-1.267 3.979-1.634l0.108-0.023c1.152-0.311 2.476-0.492 3.842-0.498h0.229l0.776 0.037c0.645 0.052 1.285 0.152 1.915 0.31v1.5c-0.547-0.134-1.194-0.235-1.856-0.281l-0.037-0.002c-0.131-0.010-0.262-0.021-0.383-0.021zM28.932 5.021c0.336 0.026 0.682 0.042 1.028 0.042 1.364-0.005 2.728-0.184 4.045-0.525 1.479-0.377 2.774-0.896 3.979-1.56l-0.086 0.043v14.637c-1.177 0.697-2.537 1.266-3.978 1.634l-0.108 0.023c-1.259 0.325-2.55 0.488-3.845 0.493-0.033 0-0.071 0-0.11 0-0.999 0-1.968-0.125-2.894-0.359l0.081 0.017v-14.726c0.545 0.132 1.191 0.23 1.851 0.276l0.038 0.002zM36.382 5.136l-0.53 0.178c-1.766 0.637-3.803 1.005-5.926 1.005-0.327 0-0.653-0.009-0.976-0.026l0.045 0.002-0.43-0.026v11.951l0.367 0.031c0.303 0.023 0.657 0.037 1.014 0.037 1.243 0 2.448-0.161 3.596-0.462l-0.098 0.022c1.039-0.265 1.939-0.599 2.794-1.014l-0.087 0.038 0.231-0.11v-11.625z"></path>
<path d="M18.75 24.096c-0.143-0.149-0.345-0.242-0.567-0.242-0.009 0-0.018 0-0.027 0l0.001-0c-0.115 0-0.231 0.021-0.341 0.063-0.201 0.081-0.357 0.238-0.434 0.435l-0.002 0.005c-0.042 0.105-0.063 0.22-0.063 0.331v1.994c0 0.136 0.021 0.278 0.079 0.404 0.052 0.105 0.115 0.194 0.199 0.268 0.079 0.068 0.173 0.115 0.273 0.142s0.199 0.042 0.299 0.042c0.457-0.009 0.824-0.381 0.824-0.839 0-0 0-0 0-0v0-0.22h-0.525v0.178c0.005 0.058 0 0.121-0.026 0.178-0.017 0.043-0.042 0.080-0.073 0.11l-0 0c-0.059 0.047-0.133 0.076-0.214 0.079l-0.001 0c-0.011 0.002-0.023 0.002-0.035 0.002-0.087 0-0.163-0.042-0.211-0.107l-0-0.001c-0.046-0.072-0.074-0.159-0.074-0.254 0-0.007 0-0.014 0-0.020l-0 0.001v-1.852c0-0.105 0.021-0.21 0.068-0.299 0.047-0.074 0.129-0.122 0.222-0.122 0.011 0 0.021 0.001 0.031 0.002l-0.001-0c0.003-0 0.006-0 0.009-0 0.090 0 0.17 0.043 0.221 0.11l0 0.001c0.056 0.071 0.089 0.161 0.089 0.259 0 0.003-0 0.006-0 0.009v-0 0.173h0.514v-0.205c0-0.001 0-0.003 0-0.005 0-0.24-0.090-0.459-0.237-0.626l0.001 0.001zM21.84 24.070c-0.159-0.132-0.365-0.212-0.59-0.212-0.112 0-0.219 0.020-0.319 0.056l0.006-0.002c-0.105 0.031-0.194 0.089-0.273 0.157-0.089 0.079-0.157 0.173-0.205 0.278-0.052 0.126-0.079 0.257-0.073 0.388v1.91c-0.005 0.131 0.021 0.262 0.073 0.388 0.047 0.105 0.115 0.194 0.205 0.268 0.079 0.073 0.168 0.131 0.273 0.168 0.092 0.034 0.198 0.054 0.31 0.054s0.217-0.020 0.316-0.056l-0.006 0.002c0.324-0.112 0.553-0.414 0.553-0.77 0-0.019-0.001-0.037-0.002-0.056l0 0.003v-1.91c0-0.011 0.001-0.024 0.001-0.037 0-0.248-0.105-0.472-0.273-0.629l-0-0zM21.598 26.64c0.001 0.009 0.001 0.019 0.001 0.029 0 0.098-0.041 0.186-0.106 0.249l-0 0c-0.066 0.055-0.151 0.088-0.244 0.088s-0.178-0.033-0.245-0.088l0.001 0c-0.065-0.062-0.106-0.15-0.106-0.247 0-0.009 0-0.018 0.001-0.027l-0 0.001v-1.91c-0.001-0.009-0.001-0.020-0.001-0.031 0-0.097 0.041-0.185 0.106-0.247l0-0c0.066-0.055 0.151-0.088 0.244-0.088s0.178 0.033 0.245 0.088l-0.001-0c0.066 0.062 0.106 0.15 0.106 0.247 0 0.011-0 0.021-0.001 0.032l0-0.001v1.91zM25.9 27.495v-3.615h-0.504l-0.656 1.915h-0.011l-0.661-1.915h-0.493v3.62h0.514v-2.203h0.011l0.504 1.553h0.262l0.509-1.553h0.005v2.203h0.519zM28.833 24.132c-0.079-0.084-0.178-0.157-0.294-0.194-0.103-0.034-0.221-0.053-0.344-0.053-0.010 0-0.020 0-0.030 0l0.002-0h-0.766v3.609h0.514v-1.411h0.262c0.163 0.011 0.32-0.026 0.467-0.1 0.115-0.063 0.21-0.157 0.283-0.273 0.058-0.1 0.1-0.205 0.115-0.315 0.021-0.122 0.032-0.263 0.032-0.407 0-0.185-0.019-0.365-0.056-0.538l0.003 0.017c-0.037-0.129-0.102-0.241-0.189-0.331l0 0zM28.57 25.234c-0.005 0.068-0.021 0.131-0.052 0.194-0.031 0.052-0.073 0.1-0.131 0.126-0.061 0.027-0.133 0.043-0.208 0.043-0.012 0-0.023-0-0.035-0.001l0.002 0h-0.236v-1.228h0.262c0.084 0 0.157 0.011 0.236 0.047 0.052 0.031 0.094 0.079 0.121 0.131 0.026 0.060 0.042 0.131 0.042 0.205v0.483zM31.267 23.881h-0.42l-0.792 3.62h0.514l0.152-0.782h0.698l0.157 0.776h0.509l-0.813-3.615zM30.795 26.231l0.257-1.312h0.005l0.252 1.312h-0.514zM34.598 26.058h-0.011l-0.776-2.177h-0.493v3.62h0.514v-2.177h0.011l0.787 2.172h0.483v-3.615h-0.514v2.177zM37.746 23.881l-0.42 1.437h-0.005l-0.42-1.437h-0.54l0.708 2.088v1.527h0.514v-1.521l0.708-2.093h-0.546zM17.312 28.518h0.247v0.698h0.168v-0.698h0.247v-0.142h-0.661v0.142zM19.4 28.377l-0.325 0.839h0.178l0.068-0.194h0.336l0.068 0.194h0.184l-0.331-0.839h-0.178zM19.374 28.88l0.11-0.315 0.115 0.315h-0.226zM21.457 28.906h0.199v0.105c-0.054 0.045-0.123 0.072-0.199 0.073h-0c-0.003 0-0.007 0-0.010 0-0.069 0-0.129-0.033-0.168-0.084l-0-0.001c-0.040-0.056-0.063-0.126-0.063-0.201 0-0.005 0-0.010 0-0.015l-0 0.001c0-0.189 0.079-0.283 0.241-0.283 0.005-0 0.010-0.001 0.015-0.001 0.084 0 0.154 0.058 0.173 0.136l0 0.001 0.168-0.031c-0.037-0.168-0.157-0.247-0.357-0.247-0.005-0-0.010-0-0.016-0-0.107 0-0.204 0.040-0.278 0.106l0-0c-0.075 0.074-0.122 0.177-0.122 0.292 0 0.012 0 0.024 0.002 0.035l-0-0.002c0 0.115 0.031 0.226 0.105 0.315 0.074 0.075 0.177 0.122 0.291 0.122 0.010 0 0.020-0 0.030-0.001l-0.001 0c0.131 0 0.262-0.042 0.357-0.131v-0.331h-0.367v0.142zM23.565 28.377h-0.168v0.839h0.588v-0.147h-0.42v-0.687zM25.349 28.377h-0.173v0.839h0.173v-0.839zM27.091 28.933l-0.346-0.556h-0.163v0.839h0.157v-0.551l0.336 0.551h0.168v-0.839h-0.157v0.556zM28.665 28.843h0.42v-0.142h-0.42v-0.184h0.446v-0.142h-0.619v0.839h0.64v-0.147h-0.472v-0.226zM32.479 28.707h-0.331v-0.331h-0.168v0.839h0.168v-0.367h0.331v0.367h0.168v-0.839h-0.168v0.331zM34.063 28.843h0.42v-0.142h-0.42v-0.184h0.451v-0.142h-0.619v0.839h0.635v-0.147h-0.467v-0.226zM36.209 28.843c0.147-0.021 0.22-0.1 0.22-0.231 0.001-0.009 0.002-0.019 0.002-0.029 0-0.065-0.032-0.124-0.080-0.16l-0.001-0c-0.063-0.034-0.138-0.053-0.218-0.053-0.010 0-0.020 0-0.030 0.001l0.001-0h-0.357v0.839h0.168v-0.346h0.031c0.037 0 0.073 0 0.105 0.016 0.026 0.016 0.052 0.037 0.063 0.063l0.184 0.262h0.199l-0.105-0.157c-0.042-0.084-0.105-0.157-0.184-0.205zM36.041 28.728h-0.126v-0.21h0.131c0.058-0.005 0.121 0 0.173 0.021 0.024 0.019 0.039 0.049 0.039 0.081 0 0.018-0.005 0.035-0.013 0.050l0-0.001c-0.008 0.015-0.018 0.027-0.031 0.037l-0 0c-0.043 0.014-0.092 0.022-0.143 0.022-0.011 0-0.021-0-0.032-0.001l0.001 0zM37.83 28.843h0.42v-0.142h-0.42v-0.184h0.451v-0.142h-0.619v0.839h0.635v-0.147h-0.467v-0.226z"></path>
</symbol>
<symbol id="icon-Logo5" viewBox="0 0 57 32">
<path d="M28.492 14.613c-0.202-0.262-0.323-0.594-0.323-0.955 0-0.035 0.001-0.071 0.003-0.105l-0 0.005v-1.536c0-0.475 0.107-0.832 0.32-1.077s0.587-0.368 1.104-0.363c0.485 0 0.837 0.107 1.040 0.309 0.224 0.267 0.331 0.592 0.309 0.923v0.357h-0.875v-0.363c0-0.123-0.005-0.24-0.027-0.357-0.014-0.086-0.059-0.161-0.122-0.213l-0.001-0c-0.079-0.054-0.178-0.087-0.283-0.087-0.013 0-0.026 0-0.038 0.001l0.002-0c-0.009-0.001-0.021-0.001-0.032-0.001-0.112 0-0.215 0.034-0.301 0.093l0.002-0.001c-0.074 0.058-0.127 0.139-0.149 0.232l-0.001 0.003c-0.021 0.123-0.032 0.251-0.032 0.373v1.867c-0.016 0.187 0.027 0.363 0.112 0.528 0.043 0.053 0.107 0.101 0.176 0.128 0.050 0.019 0.107 0.030 0.167 0.030 0.020 0 0.040-0.001 0.059-0.004l-0.002 0c0.012 0.001 0.027 0.002 0.041 0.002 0.1 0 0.193-0.031 0.27-0.083l-0.002 0.001c0.069-0.056 0.118-0.136 0.133-0.227l0-0.002c0.016-0.123 0.027-0.251 0.027-0.373v-0.384h0.875v0.347c0.021 0.341-0.085 0.683-0.304 0.965-0.203 0.229-0.544 0.341-1.045 0.341-0.507 0-0.885-0.123-1.104-0.373zM32.14 14.635c-0.224-0.24-0.331-0.587-0.331-1.051v-1.616c0-0.459 0.107-0.8 0.331-1.040 0.219-0.235 0.587-0.352 1.109-0.347 0.512 0 0.88 0.112 1.099 0.347 0.224 0.235 0.336 0.581 0.336 1.040v1.616c0 0.459-0.112 0.805-0.336 1.045-0.224 0.245-0.587 0.363-1.099 0.363s-0.891-0.123-1.109-0.357zM33.655 14.245c0.080-0.149 0.117-0.315 0.107-0.48v-1.979c0.011-0.16-0.027-0.32-0.107-0.469-0.046-0.057-0.105-0.101-0.173-0.127l-0.003-0.001c-0.050-0.019-0.108-0.031-0.169-0.031-0.021 0-0.043 0.001-0.063 0.004l0.002-0c-0.019-0.003-0.041-0.004-0.064-0.004-0.061 0-0.12 0.011-0.174 0.032l0.003-0.001c-0.073 0.027-0.134 0.071-0.181 0.127l-0.001 0.001c-0.075 0.144-0.112 0.309-0.107 0.469v1.989c-0.005 0.16 0.027 0.331 0.107 0.48 0.109 0.098 0.254 0.158 0.413 0.158 0.080 0 0.156-0.015 0.226-0.042l-0.004 0.001c0.075-0.027 0.133-0.069 0.187-0.117v-0.011zM35.735 10.624h0.944l0.709 2.987 0.725-2.987h0.917l0.091 4.309h-0.677l-0.075-2.992-0.693 2.992h-0.555l-0.725-3.003-0.064 3.003h-0.688l0.085-4.309zM40.177 10.624h1.467c0.848 0 1.269 0.411 1.269 1.227 0 0.779-0.443 1.173-1.333 1.173h-0.501v1.909h-0.907l0.005-4.309zM41.431 12.469c0.091 0.005 0.181 0 0.267-0.021 0.085-0.027 0.165-0.064 0.235-0.117 0.101-0.144 0.149-0.32 0.128-0.485 0-0.133-0.011-0.267-0.043-0.389-0.015-0.048-0.038-0.089-0.070-0.123l0 0c-0.031-0.035-0.068-0.063-0.11-0.084l-0.002-0.001c-0.128-0.053-0.267-0.075-0.405-0.069h-0.352v1.291h0.352zM44.215 10.624h0.976l1.003 4.309h-0.848l-0.197-0.992h-0.869l-0.203 0.992h-0.853l0.997-4.309zM45.052 13.44l-0.341-1.808-0.336 1.813h0.677zM46.999 10.624h0.635l1.211 2.459v-2.453h0.757v4.304h-0.603l-1.221-2.56v2.56h-0.779v-4.309zM51.362 13.291l-1.013-2.661h0.853l0.613 1.707 0.576-1.707h0.832l-0.992 2.667v1.637h-0.875v-1.643zM29.894 16.816v0.224h-0.741v1.755h-0.309v-1.755h-0.747v-0.224h1.797zM32.215 18.795h-0.245c-0.024 0-0.046-0.008-0.064-0.022l0 0c-0.018-0.010-0.033-0.025-0.042-0.042l-0-0.001-0.213-0.469h-1.024l-0.213 0.469c-0.006 0.021-0.018 0.039-0.032 0.053v0c-0.016 0.010-0.036 0.017-0.057 0.017-0.004 0-0.008-0-0.013-0.001l0 0h-0.24l0.907-1.973h0.32l0.912 1.968zM30.71 18.059h0.853l-0.363-0.8c-0.023-0.052-0.044-0.116-0.062-0.182l-0.002-0.010-0.037 0.107-0.032 0.085-0.357 0.8zM33.772 18.597h0.171c0.101-0.005 0.196-0.024 0.285-0.056l-0.007 0.002 0.117-0.053v-0.443h-0.357c-0.002 0-0.004 0-0.007 0-0.018 0-0.034-0.006-0.047-0.016l0 0c-0.004-0.004-0.008-0.010-0.011-0.016l-0-0-0.005-0.021v-0.149h0.704v0.757c-0.174 0.108-0.381 0.179-0.603 0.197l-0.005 0c-0.091 0.011-0.176 0.016-0.267 0.016-0.16 0-0.309-0.027-0.459-0.075-0.14-0.049-0.26-0.12-0.364-0.209l0.001 0.001c-0.095-0.085-0.172-0.188-0.227-0.304l-0.002-0.006c-0.059-0.133-0.085-0.272-0.085-0.411-0-0.010-0.001-0.022-0.001-0.034 0-0.277 0.124-0.524 0.319-0.691l0.001-0.001c0.096-0.091 0.224-0.16 0.357-0.208 0.142-0.048 0.305-0.076 0.475-0.076 0.092 0 0.183 0.008 0.271 0.024l-0.009-0.001c0.149 0.021 0.284 0.066 0.407 0.131l-0.007-0.003c0.053 0.027 0.107 0.064 0.16 0.101l-0.091 0.123c-0.008 0.012-0.019 0.021-0.032 0.026l-0 0c-0.011 0.006-0.024 0.010-0.037 0.011h-0c-0.020-0.001-0.038-0.007-0.054-0.016l0.001 0c-0.032-0.011-0.059-0.027-0.091-0.048-0.144-0.071-0.313-0.112-0.492-0.112-0.009 0-0.017 0-0.026 0l0.001-0c-0.005-0-0.012-0-0.018-0-0.119 0-0.234 0.020-0.341 0.056l0.008-0.002c-0.107 0.037-0.192 0.091-0.267 0.16-0.072 0.066-0.13 0.146-0.169 0.236l-0.002 0.004c-0.080 0.213-0.080 0.448 0 0.661 0.126 0.267 0.393 0.449 0.702 0.449 0.035 0 0.069-0.002 0.102-0.007l-0.004 0zM36.663 18.565h0.987v0.229h-1.291v-1.973h0.309l-0.005 1.744zM38.679 18.795h-0.309v-1.973h0.309v1.973zM39.831 16.827c0.021 0.011 0.037 0.021 0.048 0.037l1.323 1.488v-1.541h0.267v1.984h-0.149c-0.027 0-0.048 0-0.069-0.011-0.019-0.010-0.034-0.022-0.048-0.037l-0-0-1.323-1.493v1.541h-0.261v-1.973h0.213zM43.756 16.816v0.213h-1.099v0.656h0.891v0.213h-0.891v0.672h1.099v0.213h-1.419v-1.968h1.419zM11.286 4.618l13.761 3.371v11.819l-13.761-3.371v-11.819zM10.406 3.605v13.409l15.521 3.808v-13.409l-15.526-3.803z"></path>
<path d="M18.721 27.040l-15.521-3.819v-13.393l15.521 3.808v13.398z"></path>
<path d="M10.662 4.464l13.579 3.333-5.776 4.982-13.579-3.328 5.776-4.987zM10.406 3.61l-7.206 6.219 15.521 3.808 7.2-6.224-15.521-3.803zM19.595 26.283l6.331-5.467-6.331-1.552v7.019z"></path>
</symbol>
<symbol id="icon-Logo4" viewBox="0 0 57 32">
<path d="M14.273 23.862c0.128 0.144 0.197 0.331 0.192 0.517 0.011 0.123-0.016 0.245-0.069 0.363-0.053 0.112-0.128 0.213-0.229 0.299-0.256 0.171-0.565 0.256-0.885 0.24h-1.547v-3.307h1.515c0.025-0.002 0.054-0.003 0.083-0.003 0.283 0 0.545 0.085 0.765 0.23l-0.005-0.003c0.096 0.075 0.176 0.171 0.224 0.277 0.053 0.107 0.075 0.224 0.069 0.341 0.011 0.181-0.053 0.357-0.176 0.501-0.117 0.133-0.277 0.224-0.459 0.261 0.203 0.032 0.389 0.133 0.523 0.283zM12.459 23.36h0.64c0.149 0.011 0.299-0.027 0.416-0.107 0.053-0.043 0.085-0.091 0.107-0.149 0.027-0.053 0.037-0.117 0.032-0.176 0.001-0.010 0.002-0.022 0.002-0.034 0-0.051-0.010-0.1-0.029-0.145l0.001 0.002c-0.025-0.057-0.062-0.105-0.106-0.144l-0.001-0c-0.105-0.072-0.234-0.114-0.373-0.114-0.019 0-0.038 0.001-0.056 0.002l0.002-0h-0.64v0.864zM13.579 24.63c0.053-0.043 0.091-0.096 0.117-0.155 0.027-0.053 0.037-0.123 0.037-0.181 0-0.006 0.001-0.013 0.001-0.020 0-0.060-0.014-0.118-0.039-0.169l0.001 0.002c-0.029-0.062-0.071-0.114-0.122-0.154l-0.001-0.001c-0.111-0.074-0.247-0.119-0.394-0.119-0.015 0-0.030 0-0.045 0.001l0.002-0h-0.683v0.907h0.693c0.149 0.011 0.304-0.032 0.427-0.117zM17.371 25.28l-0.837-1.291h-0.32v1.291h-0.725v-3.307h1.376c0.029-0.002 0.064-0.003 0.099-0.003 0.325 0 0.624 0.107 0.865 0.289l-0.004-0.003c0.203 0.182 0.33 0.446 0.33 0.739 0 0.239-0.084 0.457-0.224 0.629l0.001-0.002c-0.176 0.181-0.411 0.299-0.661 0.336l0.896 1.323h-0.789zM16.209 23.536h0.597c0.411 0 0.619-0.16 0.619-0.496 0-0.006 0-0.014 0-0.021 0-0.066-0.014-0.128-0.039-0.184l0.001 0.003c-0.028-0.067-0.068-0.124-0.117-0.17l-0-0c-0.112-0.085-0.254-0.136-0.408-0.136-0.020 0-0.039 0.001-0.058 0.002l0.003-0h-0.603l0.005 1.003zM21.339 24.614h-1.445l-0.256 0.667h-0.763l1.333-3.269h0.821l1.323 3.269h-0.763l-0.256-0.667zM21.147 24.112l-0.533-1.392-0.528 1.392h1.061zM26.305 25.28h-0.72l-1.616-2.245v2.24h-0.715v-3.296h0.72l1.616 2.256v-2.256h0.72v3.301zM30.417 24.486c-0.149 0.251-0.373 0.453-0.651 0.587-0.315 0.144-0.661 0.213-1.013 0.208h-1.28v-3.307h1.28c0.352-0.005 0.699 0.064 1.013 0.208 0.277 0.128 0.501 0.325 0.651 0.576 0.14 0.249 0.223 0.547 0.223 0.864s-0.083 0.615-0.227 0.873l0.005-0.009zM29.596 24.411c0.203-0.219 0.32-0.501 0.32-0.789s-0.117-0.571-0.32-0.789c-0.223-0.175-0.507-0.28-0.816-0.28-0.032 0-0.063 0.001-0.095 0.003l0.004-0h-0.496v2.133h0.501c0.325 0.021 0.651-0.080 0.901-0.277zM21.793 3.61s9.296 3.211 9.099 7.867v7.867s-9.291-3.216-9.099-7.867v-7.867zM39.18 17.504c1.686-1.070 3.696-1.784 5.855-1.991l0.054-0.004v-2.464c-2.446 0.858-4.467 2.411-5.884 4.421l-0.025 0.038z"></path>
<path d="M38.124 18.24c1.526-2.691 3.961-4.717 6.879-5.682l0.087-0.025v-7.11s-13.248 4.592-12.966 11.216v11.2s0.587-0.203 1.52-0.587c0-0.363 0-0.72 0.043-1.083 0.331-3.248 1.986-6.054 4.41-7.905l0.027-0.020z"></path>
<path d="M36.865 22.406c0.069-0.773 0.224-1.547 0.464-2.293-1.669 1.773-2.721 4.143-2.805 6.757l-0 0.016c0.752-0.336 1.627-0.747 2.549-1.232-0.235-1.067-0.304-2.16-0.208-3.248zM37.388 22.448c-0.085 0.981-0.027 1.973 0.165 2.933 3.621-1.979 7.686-5.040 7.531-8.747v-0.32c-2.658 0.265-5.026 1.334-6.901 2.957l0.016-0.013c-0.415 0.933-0.701 2.015-0.803 3.15l-0.003 0.039z"></path>
</symbol>
<symbol id="icon-Logo3" viewBox="0 0 57 32">
<path d="M12.88 11.253c-1.28 0-2.32 0.923-2.32 2.059 0 1.141 1.040 2.059 2.315 2.059 1.28 0 2.32-0.917 2.32-2.059 0-1.136-1.040-2.059-2.315-2.059zM29.974 10.597c-0.005-1.579-0.715-3.093-1.973-4.213-1.248-1.084-2.889-1.744-4.685-1.744-0.016 0-0.033 0-0.049 0h0.003c-1.776 0-3.483 0.629-4.736 1.749-1.191 1.025-1.948 2.526-1.973 4.204l-0 0.004v8.704s13.414-1.328 13.414-8.704zM5.867 22.16c0 1.099 0.496 2.149 1.371 2.928 0.869 0.756 2.013 1.216 3.263 1.216 0.010 0 0.019-0 0.029-0h-0.001c1.237 0 2.421-0.437 3.296-1.216 0.827-0.714 1.353-1.758 1.371-2.925l0-0.003v-6.054s-9.328 0.923-9.328 6.054zM10.528 23.243c-0.24 0-0.48-0.059-0.677-0.181-0.195-0.114-0.348-0.28-0.445-0.479l-0.003-0.007c-0.059-0.122-0.093-0.265-0.093-0.416 0-0.076 0.009-0.149 0.025-0.22l-0.001 0.007c0.048-0.213 0.16-0.4 0.336-0.555 0.17-0.15 0.382-0.255 0.616-0.298l0.008-0.001c0.235-0.037 0.48-0.016 0.704 0.064s0.416 0.219 0.549 0.4c0.127 0.166 0.204 0.378 0.204 0.607 0 0.306-0.137 0.579-0.352 0.763l-0.001 0.001c-0.117 0.107-0.251 0.181-0.4 0.24-0.149 0.053-0.304 0.080-0.469 0.080zM19.958 22.646h-0.901v0.933h-0.469v-2.277h1.483v0.379h-1.013v0.587h0.901v0.379zM22.209 22.491c0 0.224-0.037 0.421-0.117 0.587-0.141 0.317-0.453 0.534-0.816 0.534-0.011 0-0.022-0-0.034-0.001l0.002 0c-0.009 0-0.021 0.001-0.032 0.001-0.362 0-0.674-0.212-0.819-0.518l-0.002-0.006c-0.074-0.161-0.118-0.35-0.118-0.549 0-0.013 0-0.026 0.001-0.039l-0 0.002v-0.101c0-0.229 0.037-0.427 0.123-0.592 0.146-0.317 0.461-0.534 0.826-0.534 0.008 0 0.015 0 0.023 0l-0.001-0c0.187 0 0.357 0.048 0.501 0.139 0.149 0.091 0.267 0.224 0.341 0.395 0.085 0.165 0.123 0.363 0.123 0.587v0.107zM21.734 22.384c0-0.235-0.043-0.416-0.128-0.539-0.076-0.113-0.203-0.187-0.347-0.187-0.005 0-0.011 0-0.016 0l0.001-0c-0.16 0-0.283 0.059-0.368 0.181s-0.128 0.304-0.128 0.539v0.112c0 0.235 0.043 0.411 0.128 0.539s0.213 0.192 0.373 0.192c0.155 0 0.272-0.059 0.357-0.181s0.128-0.304 0.128-0.539v-0.112zM23.729 22.982c0-0.091-0.032-0.16-0.091-0.203-0.098-0.064-0.212-0.115-0.333-0.147l-0.008-0.002c-0.16-0.053-0.288-0.107-0.384-0.16-0.256-0.139-0.389-0.325-0.389-0.56 0-0.128 0.037-0.235 0.107-0.331s0.165-0.171 0.299-0.229c0.128-0.053 0.272-0.080 0.437-0.080 0.16 0 0.304 0.032 0.432 0.091 0.128 0.053 0.224 0.139 0.299 0.251 0.069 0.107 0.107 0.229 0.107 0.363h-0.469c0-0.107-0.037-0.187-0.101-0.24-0.069-0.057-0.157-0.091-0.254-0.091-0.008 0-0.016 0-0.024 0.001l0.001-0c-0.007-0-0.016-0.001-0.025-0.001-0.091 0-0.174 0.028-0.244 0.076l0.001-0.001c-0.058 0.042-0.096 0.11-0.096 0.187 0 0.002 0 0.004 0 0.006v-0c0 0.075 0.037 0.133 0.112 0.187 0.075 0.048 0.187 0.096 0.331 0.139 0.267 0.080 0.459 0.181 0.587 0.299 0.117 0.117 0.176 0.267 0.176 0.443 0 0.197-0.069 0.352-0.219 0.464s-0.352 0.171-0.603 0.171c-0.004 0-0.010 0-0.015 0-0.168 0-0.328-0.035-0.473-0.099l0.008 0.003c-0.261-0.098-0.443-0.346-0.443-0.635 0-0.005 0-0.011 0-0.016v0.001h0.469c0 0.251 0.155 0.373 0.453 0.373 0.107 0 0.197-0.021 0.261-0.064 0.059-0.053 0.091-0.112 0.091-0.192zM26.236 21.68h-0.699v1.899h-0.469v-1.899h-0.693v-0.373h1.856v0.373zM27.868 22.587h-0.896v0.613h1.056v0.373h-1.525v-2.272h1.52v0.379h-1.051v0.544h0.896v0.368zM29.148 22.747h-0.373v0.832h-0.475v-2.277h0.848c0.267 0 0.475 0.059 0.619 0.181 0.149 0.117 0.219 0.288 0.219 0.507 0 0.16-0.032 0.283-0.101 0.389-0.064 0.107-0.165 0.187-0.304 0.245l0.491 0.933v0.021h-0.501l-0.427-0.832zM28.774 22.363h0.373c0.117 0 0.213-0.027 0.272-0.085 0.060-0.058 0.097-0.139 0.097-0.229 0-0.008-0-0.015-0.001-0.022l0 0.001c0-0.107-0.027-0.192-0.091-0.251-0.059-0.064-0.155-0.096-0.277-0.096h-0.373v0.683zM31.612 22.774v0.8h-0.469v-2.272h0.885c0.171 0 0.32 0.032 0.453 0.096 0.128 0.059 0.229 0.149 0.299 0.267 0.069 0.112 0.107 0.245 0.107 0.389 0 0.224-0.080 0.4-0.235 0.533-0.149 0.123-0.363 0.187-0.629 0.187h-0.411zM31.612 22.4h0.416c0.123 0 0.219-0.032 0.283-0.091 0.069-0.059 0.101-0.144 0.101-0.251 0-0.003 0-0.007 0-0.011 0-0.099-0.039-0.189-0.102-0.256l0 0c-0.066-0.066-0.158-0.107-0.259-0.107-0.003 0-0.005 0-0.008 0h-0.432v0.709zM34.577 22.592h-0.901v0.608h1.056v0.373h-1.525v-2.272h1.52v0.379h-1.051v0.544h0.901v0.368zM36.753 21.686h-0.699v1.893h-0.469v-1.899h-0.688v-0.373h1.856v0.373zM38.391 22.592h-0.907v0.608h1.061v0.373h-1.531v-2.272h1.52v0.379h-1.040v0.544h0.901v0.368zM39.66 22.747h-0.373v0.832h-0.469v-2.277h0.848c0.267 0 0.48 0.059 0.624 0.181 0.144 0.117 0.213 0.288 0.213 0.507 0 0.16-0.032 0.283-0.096 0.389-0.069 0.107-0.171 0.187-0.309 0.245l0.496 0.933v0.021h-0.507l-0.427-0.832zM39.287 22.363h0.379c0.117 0 0.213-0.027 0.277-0.085 0.060-0.058 0.097-0.139 0.097-0.229 0-0.008-0-0.015-0.001-0.022l0 0.001c0-0.107-0.032-0.192-0.096-0.251-0.053-0.064-0.149-0.096-0.277-0.096h-0.373v0.683zM42.044 22.982c0-0.091-0.032-0.16-0.096-0.203-0.097-0.063-0.208-0.114-0.328-0.147l-0.008-0.002c-0.16-0.053-0.293-0.107-0.384-0.16-0.261-0.139-0.389-0.325-0.389-0.56 0-0.128 0.032-0.235 0.107-0.331 0.064-0.096 0.165-0.171 0.293-0.229 0.133-0.053 0.277-0.080 0.437-0.080s0.309 0.032 0.437 0.091c0.128 0.053 0.224 0.139 0.293 0.251 0.069 0.107 0.107 0.229 0.107 0.363h-0.469c0-0.107-0.032-0.187-0.096-0.24-0.069-0.057-0.157-0.091-0.254-0.091-0.008 0-0.016 0-0.024 0.001l0.001-0c-0.007-0-0.016-0.001-0.025-0.001-0.091 0-0.175 0.028-0.244 0.076l0.001-0.001c-0.058 0.042-0.096 0.11-0.096 0.187 0 0.002 0 0.004 0 0.006v-0c0 0.075 0.037 0.133 0.107 0.187 0.080 0.048 0.187 0.096 0.336 0.139 0.267 0.080 0.459 0.181 0.581 0.299s0.181 0.267 0.181 0.443c0 0.197-0.075 0.352-0.224 0.464s-0.347 0.171-0.603 0.171c-0.004 0-0.010 0-0.015 0-0.168 0-0.328-0.035-0.473-0.099l0.008 0.003c-0.261-0.098-0.443-0.346-0.443-0.635 0-0.005 0-0.011 0-0.016v0.001h0.475c0 0.251 0.149 0.373 0.448 0.373 0.112 0 0.203-0.021 0.267-0.064 0.059-0.053 0.091-0.112 0.091-0.192z"></path>
</symbol>
<symbol id="icon-Logo2" viewBox="0 0 57 32">
<path d="M19.414 26.187l0.027 0.005 0.021 0.011 0.117 0.112c-0.091 0.091-0.203 0.16-0.325 0.213-0.149 0.053-0.309 0.080-0.464 0.075-0.149 0-0.299-0.021-0.437-0.069-0.246-0.085-0.439-0.268-0.537-0.501l-0.002-0.006c-0.050-0.117-0.080-0.254-0.080-0.397s0.029-0.28 0.082-0.404l-0.003 0.007c0.053-0.112 0.128-0.219 0.229-0.309 0.096-0.085 0.213-0.155 0.347-0.197 0.134-0.048 0.289-0.076 0.451-0.076 0.15 0 0.294 0.024 0.428 0.069l-0.010-0.003c0.112 0.043 0.219 0.107 0.309 0.181l-0.096 0.117c-0.007 0.009-0.016 0.016-0.026 0.021l-0 0c-0.010 0.007-0.023 0.011-0.037 0.011-0 0-0 0-0 0h0c-0.016-0.002-0.031-0.008-0.043-0.016l0 0-0.053-0.032-0.069-0.037c-0.107-0.054-0.234-0.086-0.368-0.086-0.013 0-0.026 0-0.040 0.001l0.002-0c-0.107 0-0.219 0.016-0.32 0.053-0.19 0.065-0.339 0.206-0.414 0.385l-0.002 0.005c-0.040 0.091-0.063 0.197-0.064 0.309v0c0 0.107 0.021 0.219 0.059 0.32 0.073 0.181 0.219 0.32 0.401 0.383l0.005 0.001c0.096 0.032 0.197 0.053 0.299 0.053l0.176-0.011c0.148-0.016 0.28-0.076 0.385-0.166l-0.001 0.001c0.014-0.012 0.033-0.020 0.053-0.021h0zM22.774 25.627c0 0.139-0.021 0.267-0.075 0.395-0.053 0.112-0.123 0.213-0.219 0.304-0.101 0.091-0.213 0.16-0.347 0.203-0.283 0.096-0.597 0.096-0.885 0-0.132-0.047-0.246-0.116-0.342-0.203l0.001 0.001c-0.092-0.085-0.166-0.188-0.216-0.304l-0.002-0.006c-0.107-0.251-0.107-0.533 0-0.784 0.053-0.117 0.123-0.219 0.219-0.309 0.101-0.085 0.213-0.149 0.341-0.197 0.132-0.046 0.284-0.072 0.443-0.072s0.311 0.026 0.452 0.075l-0.010-0.003c0.128 0.048 0.245 0.117 0.347 0.203 0.181 0.166 0.294 0.404 0.294 0.668 0 0.011-0 0.021-0.001 0.032l0-0.002zM22.47 25.627c0-0.107-0.016-0.213-0.053-0.315-0.071-0.181-0.215-0.32-0.395-0.383l-0.005-0.001c-0.096-0.033-0.206-0.051-0.32-0.051s-0.224 0.019-0.327 0.053l0.007-0.002c-0.097 0.033-0.181 0.084-0.251 0.15l0-0c-0.069 0.064-0.123 0.142-0.158 0.23l-0.002 0.004c-0.069 0.208-0.069 0.427 0 0.635 0.071 0.183 0.218 0.323 0.401 0.383l0.005 0.001c0.208 0.064 0.437 0.064 0.64 0 0.096-0.037 0.181-0.085 0.251-0.149 0.069-0.069 0.123-0.149 0.155-0.235 0.037-0.107 0.053-0.213 0.053-0.32zM25.068 25.958l0.032 0.075 0.032-0.075 0.037-0.069 0.747-1.173c0.011-0.016 0.027-0.032 0.037-0.032 0.019-0.007 0.041-0.011 0.064-0.011v0h0.219v1.909h-0.261v-1.525l-0.747 1.189c-0.010 0.018-0.025 0.033-0.042 0.042l-0.001 0c-0.018 0.010-0.040 0.016-0.063 0.016-0 0-0 0-0.001 0h-0.043c-0.001 0-0.001 0-0.002 0-0.023 0-0.044-0.006-0.063-0.016l0.001 0c-0.018-0.010-0.033-0.025-0.042-0.042l-0-0.001-0.768-1.2v1.536h-0.256v-1.909h0.224c0.016 0 0.037 0 0.059 0.011 0.016 0.005 0.032 0.016 0.043 0.032l0.757 1.173 0.037 0.069zM27.862 25.867v0.715h-0.288v-1.909h0.645c0.123 0 0.245 0.016 0.363 0.043 0.096 0.021 0.181 0.064 0.256 0.117 0.064 0.053 0.117 0.117 0.149 0.187 0.032 0.080 0.053 0.16 0.048 0.245 0 0.002 0 0.003 0 0.005 0 0.174-0.083 0.328-0.212 0.426l-0.001 0.001c-0.075 0.059-0.16 0.107-0.256 0.128-0.102 0.030-0.219 0.048-0.34 0.048-0.004 0-0.008-0-0.013-0h0.001l-0.352-0.005zM27.862 25.659h0.352c0.080 0 0.155-0.005 0.229-0.027 0.061-0.020 0.115-0.049 0.161-0.086l-0.001 0.001c0.082-0.068 0.133-0.17 0.133-0.284 0-0.002 0-0.003-0-0.005v0c0-0.006 0.001-0.013 0.001-0.020 0-0.047-0.010-0.091-0.028-0.131l0.001 0.002c-0.026-0.053-0.062-0.098-0.106-0.133l-0.001-0.001c-0.107-0.075-0.245-0.107-0.389-0.101h-0.352v0.784zM31.772 26.582h-0.229c-0.002 0-0.005 0-0.007 0-0.021 0-0.041-0.006-0.057-0.017l0 0c-0.016-0.011-0.028-0.025-0.037-0.042l-0-0.001-0.197-0.464h-0.992l-0.208 0.464c-0.007 0.017-0.018 0.031-0.032 0.043l-0 0c-0.016 0.010-0.036 0.017-0.057 0.017-0.004 0-0.008-0-0.013-0.001l0 0h-0.229l0.875-1.909h0.304l0.88 1.909zM30.332 25.872h0.821l-0.347-0.773c-0.027-0.059-0.048-0.123-0.064-0.181l-0.032 0.101-0.032 0.080-0.347 0.773zM33.031 24.683l0.043 0.032 1.275 1.44v-1.483h0.256v1.909h-0.144c-0.021 0-0.043 0-0.059-0.011-0.019-0.010-0.035-0.022-0.048-0.037l-0-0-1.269-1.44v1.488h-0.261v-1.909h0.16c0.011 0 0.032 0 0.048 0.011zM36.748 25.824v0.757h-0.288v-0.757l-0.805-1.152h0.261c0.002-0 0.005-0 0.007-0 0.021 0 0.041 0.006 0.057 0.017l-0-0 0.037 0.043 0.501 0.747c0.032 0.047 0.062 0.101 0.088 0.158l0.003 0.007 0.037-0.080 0.053-0.085 0.491-0.747c0.011-0.016 0.023-0.030 0.037-0.042l0-0c0.016-0.013 0.037-0.021 0.060-0.021 0.001 0 0.002 0 0.004 0h0.267l-0.811 1.157zM24.924 21.472l0.384 0.032c1.947-0.747 3.565-1.984 4.754-3.562l0.020-0.027c1.060-1.413 1.697-3.196 1.697-5.127 0-0.054-0-0.107-0.001-0.161l0 0.008-2.165-1.877c0.443 1.989 0.235 4.043-0.592 5.936-0.907 1.983-2.311 3.605-4.054 4.753l-0.042 0.026z"></path>
<path d="M24.15 21.387l0.059 0.005c1.973-1.227 3.483-2.939 4.32-4.923 0.478-1.079 0.756-2.337 0.756-3.661 0-0.898-0.128-1.766-0.367-2.586l0.016 0.065-3.083-2.672c0.96 1.642 1.528 3.616 1.528 5.723 0 0.483-0.030 0.959-0.088 1.427l0.006-0.056c-0.352 2.604-1.485 4.894-3.153 6.679l0.006-0.007zM34.599 14.843c-0.599 2.176-1.883 3.995-3.6 5.256l-0.027 0.019c-0.533 0.405-1.109 0.763-1.717 1.072 1.488-0.379 2.859-1.051 4-1.963 1.103-0.874 1.982-1.982 2.569-3.252l0.023-0.055-1.248-1.077z"></path>
<path d="M34.108 14.539l-1.781-1.547c-0.047 1.877-0.666 3.6-1.687 5.013l0.018-0.026c-1.113 1.534-2.58 2.746-4.285 3.53l-0.068 0.028h0.011c0.4 0 0.8-0.021 1.195-0.059 1.692-0.597 3.134-1.537 4.301-2.744l0.003-0.003c1.093-1.13 1.895-2.549 2.281-4.13l0.013-0.062zM24.412 6.485l-2.123-1.845c-1.894 0.624-3.485 1.738-4.674 3.193l-0.014 0.018c-1.089 1.342-1.754 3.067-1.771 4.946l-0 0.004c0.028 2.083 0.84 3.971 2.154 5.387l-0.005-0.005c1.429 1.538 3.31 2.638 5.431 3.087l0.068 0.012c1.84-1.897 3.041-4.423 3.251-7.225l0.002-0.039c0.012-0.192 0.018-0.416 0.018-0.642 0-2.604-0.88-5.003-2.358-6.915l0.019 0.026zM39.009 14.256c-0.005-2.32-1.067-4.534-2.955-6.176-1.884-1.596-4.343-2.566-7.027-2.566-0.027 0-0.054 0-0.081 0l0.004-0c-1.232 0-2.453 0.197-3.605 0.587l12.992 11.28c0.423-0.919 0.67-1.993 0.672-3.125v-0.001z"></path>
</symbol>
<symbol id="icon-Logo" viewBox="0 0 56 32">
<path d="M19.935 4.045l3.672 3.483-6.82-0.005v16.887h17.837v-6.458l3.672 3.478v-17.391h-18.361zM34.467 17.543l-10.429-9.863h10.429v9.863zM31.225 21.94h-11.615v-11.358h0.824v10.587h10.791v0.771zM22.354 26.661l-0.43 0.881-0.43-0.887h-0.357l0.63 1.18v0.682h0.32v-0.682l0.63-1.18h-0.367zM22.894 28.523l0.147-0.435h0.724l0.157 0.435h0.336l-0.708-1.868h-0.289l-0.708 1.868h0.341zM23.403 27.055l0.273 0.771h-0.54l0.268-0.771zM25.113 27.784c-0.043 0.065-0.068 0.144-0.068 0.229 0 0.002 0 0.005 0 0.007v-0c0 0.157 0.052 0.283 0.163 0.383 0.11 0.094 0.262 0.147 0.446 0.147s0.341-0.052 0.472-0.152l0.105 0.126h0.367l-0.278-0.325c0.105-0.147 0.157-0.336 0.157-0.567h-0.262c0 0.126-0.031 0.241-0.084 0.341l-0.357-0.42 0.126-0.094c0.089-0.068 0.157-0.131 0.194-0.194 0.037-0.061 0.059-0.134 0.059-0.212 0-0.119-0.051-0.227-0.133-0.302l-0-0c-0.083-0.075-0.194-0.121-0.316-0.121-0.005 0-0.011 0-0.016 0l0.001-0c-0.008-0-0.017-0.001-0.026-0.001-0.13 0-0.248 0.050-0.336 0.132l0-0c-0.081 0.082-0.132 0.196-0.132 0.321 0 0.009 0 0.018 0.001 0.027l-0-0.001c0 0.058 0.016 0.121 0.042 0.184s0.079 0.142 0.152 0.236c-0.108 0.071-0.2 0.156-0.276 0.254l-0.002 0.003zM25.952 28.193c-0.080 0.065-0.182 0.104-0.294 0.105h-0c-0.005 0-0.010 0-0.016 0-0.079 0-0.151-0.030-0.205-0.079l0 0c-0.052-0.051-0.084-0.121-0.084-0.199 0-0.004 0-0.007 0-0.011l-0 0.001c0-0.105 0.052-0.189 0.157-0.268l0.037-0.026 0.404 0.477zM25.622 27.369c-0.089-0.105-0.131-0.199-0.131-0.273 0-0.063 0.016-0.115 0.052-0.157 0.034-0.036 0.081-0.058 0.134-0.058 0.003 0 0.006 0 0.008 0h-0c0.058 0 0.105 0.016 0.142 0.052 0.037 0.031 0.052 0.073 0.052 0.126 0 0.073-0.026 0.131-0.079 0.178l-0.037 0.031-0.142 0.1zM28.654 28.382c0.131-0.11 0.205-0.268 0.22-0.467h-0.32c-0.016 0.131-0.058 0.231-0.121 0.283-0.068 0.058-0.157 0.089-0.289 0.089-0.005 0-0.010 0-0.016 0-0.124 0-0.233-0.062-0.298-0.157l-0.001-0.001c-0.073-0.105-0.11-0.262-0.11-0.462v-0.168c0-0.199 0.037-0.352 0.115-0.451 0.073-0.105 0.184-0.157 0.325-0.157 0.121 0 0.21 0.031 0.273 0.089 0.063 0.063 0.105 0.157 0.121 0.294h0.32c-0.009-0.186-0.090-0.352-0.215-0.472l-0-0c-0.125-0.108-0.289-0.174-0.469-0.174-0.011 0-0.021 0-0.031 0.001l0.001-0c-0.007-0-0.016-0-0.025-0-0.287 0-0.534 0.171-0.645 0.416l-0.002 0.004c-0.063 0.136-0.094 0.289-0.094 0.467v0.173c0 0.173 0.031 0.32 0.094 0.451s0.147 0.231 0.262 0.304c0.115 0.068 0.247 0.105 0.393 0.105 0.21 0 0.383-0.058 0.509-0.168zM30.558 28.119c0.063-0.136 0.094-0.299 0.094-0.483v-0.105c0-0.178-0.031-0.341-0.094-0.472-0.112-0.256-0.363-0.431-0.655-0.431-0.009 0-0.019 0-0.028 0.001l0.001-0c-0.005-0-0.011-0-0.017-0-0.294 0-0.548 0.175-0.663 0.426l-0.002 0.005c-0.052 0.142-0.089 0.304-0.089 0.483v0.105c0 0.178 0.037 0.336 0.1 0.472s0.157 0.241 0.273 0.315c0.121 0.079 0.257 0.115 0.404 0.115 0.157 0 0.289-0.037 0.409-0.11 0.115-0.079 0.21-0.184 0.268-0.32zM30.212 27.070c0.079 0.105 0.121 0.262 0.121 0.472v0.094c0 0.21-0.042 0.367-0.121 0.483-0.069 0.096-0.181 0.158-0.307 0.158-0.008 0-0.016-0-0.024-0.001l0.001 0c-0.004 0-0.009 0-0.014 0-0.13 0-0.245-0.064-0.315-0.162l-0.001-0.001c-0.076-0.122-0.122-0.27-0.122-0.428 0-0.015 0-0.031 0.001-0.046l-0 0.002v-0.11c0-0.205 0.042-0.357 0.121-0.467 0.070-0.099 0.184-0.163 0.314-0.163 0.006 0 0.012 0 0.018 0l-0.001-0c0.142 0 0.252 0.052 0.331 0.163z"></path>
</symbol>
<symbol id="icon-instagram" viewBox="0 0 32 32">
<path d="M31.968 9.408c-0.024-1.403-0.292-2.735-0.763-3.968l0.027 0.080c-0.427-1.109-1.058-2.054-1.854-2.83l-0.002-0.002c-0.8-0.8-1.76-1.44-2.832-1.84-1.151-0.448-2.483-0.721-3.875-0.752l-0.013-0c-1.458-0.070-3.167-0.109-4.885-0.109-0.6 0-1.199 0.005-1.797 0.014l0.090-0.001c-4.352 0-4.896 0.016-6.592 0.096-1.712 0.064-2.88 0.352-3.888 0.736-1.072 0.416-2.032 1.040-2.832 1.856-0.816 0.8-1.44 1.76-1.856 2.832-0.443 1.152-0.711 2.485-0.736 3.877l-0 0.011c-0.070 1.458-0.109 3.167-0.109 4.885 0 0.6 0.005 1.199 0.014 1.797l-0.001-0.090c0 4.352 0 4.896 0.080 6.592 0.030 1.405 0.303 2.737 0.779 3.968l-0.027-0.080c0.4 1.072 1.040 2.032 1.856 2.832 0.8 0.816 1.76 1.44 2.832 1.856 1.008 0.384 2.176 0.656 3.872 0.736 1.712 0.080 2.24 0.096 6.592 0.096s4.896-0.016 6.608-0.096c1.397-0.026 2.724-0.294 3.952-0.763l-0.080 0.027c2.16-0.851 3.837-2.528 4.669-4.633l0.019-0.055c0.384-1.024 0.672-2.176 0.736-3.888 0.080-1.696 0.096-2.24 0.096-6.592 0-4.336 0-4.88-0.080-6.592zM29.088 22.48c-0.064 1.552-0.32 2.4-0.544 2.96-0.552 1.401-1.639 2.488-3.004 3.027l-0.036 0.013c-0.56 0.224-1.424 0.48-2.976 0.544-1.68 0.080-2.192 0.096-6.464 0.096-0.465 0.007-1.013 0.011-1.562 0.011-1.724 0-3.439-0.039-5.144-0.116l0.242 0.009c-1.568-0.064-2.4-0.32-2.96-0.544-0.722-0.271-1.337-0.68-1.839-1.199l-0.001-0.001c-0.518-0.5-0.926-1.108-1.189-1.79l-0.011-0.034c-0.336-0.884-0.535-1.905-0.544-2.972l-0-0.004c-0.068-1.463-0.107-3.179-0.107-4.903 0-0.549 0.004-1.097 0.012-1.643l-0.001 0.083c0-4.272 0.016-4.784 0.096-6.464 0.064-1.568 0.32-2.4 0.544-2.976 0.256-0.688 0.656-1.312 1.2-1.824 0.504-0.519 1.118-0.928 1.806-1.189l0.034-0.011c0.56-0.224 1.408-0.48 2.976-0.544 1.68-0.080 2.192-0.096 6.448-0.096 4.288 0 4.8 0 6.464 0.096 1.568 0.064 2.4 0.32 2.976 0.544 0.688 0.256 1.328 0.656 1.84 1.2 0.528 0.512 0.944 1.136 1.2 1.824 0.208 0.576 0.48 1.424 0.544 2.976 0.080 1.68 0.096 2.192 0.096 6.464s-0.016 4.768-0.096 6.464z"></path>
<path d="M16.064 7.776c-4.542 0-8.224 3.682-8.224 8.224s3.682 8.224 8.224 8.224v0c4.542 0 8.224-3.682 8.224-8.224s-3.682-8.224-8.224-8.224v0zM16.064 21.328c-2.943 0-5.328-2.385-5.328-5.328s2.385-5.328 5.328-5.328v0c2.943 0 5.328 2.385 5.328 5.328s-2.385 5.328-5.328 5.328v0zM26.528 7.456c0 1.060-0.86 1.92-1.92 1.92s-1.92-0.86-1.92-1.92v0c0-1.060 0.86-1.92 1.92-1.92s1.92 0.86 1.92 1.92v0z"></path>
</symbol>
<symbol id="icon-twitter" viewBox="0 0 32 32">
<path d="M32 6.080c-1.184 0.528-2.464 0.864-3.776 1.040 1.36-0.816 2.4-2.080 2.88-3.632-1.28 0.752-2.672 1.28-4.16 1.6-1.202-1.298-2.915-2.107-4.817-2.107-3.623 0-6.56 2.937-6.56 6.56 0 0.538 0.065 1.060 0.187 1.56l-0.009-0.045c-5.462-0.281-10.265-2.883-13.477-6.83l-0.027-0.034c-0.558 0.949-0.887 2.089-0.887 3.307 0 2.26 1.134 4.255 2.865 5.446l0.022 0.014c-1.040 0-2.080-0.32-2.96-0.8v0.064c0 3.2 2.272 5.84 5.264 6.448-0.518 0.147-1.113 0.232-1.728 0.232-0.442 0-0.873-0.044-1.29-0.127l0.042 0.007c0.878 2.623 3.284 4.493 6.136 4.56l0.008 0c-2.221 1.763-5.066 2.828-8.159 2.828-0.547 0-1.087-0.033-1.617-0.098l0.064 0.006c2.826 1.846 6.286 2.944 10.003 2.944 0.022 0 0.043-0 0.065-0h-0.003c12.080 0 18.672-10 18.672-18.672 0-0.288 0-0.576-0.032-0.848 1.312-0.928 2.4-2.080 3.296-3.408z"></path>
</symbol>
<symbol id="icon-facebook" viewBox="0 0 32 32">
<path d="M21.328 5.312h2.928v-5.088c-0.512-0.064-2.24-0.224-4.256-0.224-4.224 0-7.104 2.656-7.104 7.52v4.48h-4.64v5.68h4.64v14.32h5.696v-14.304h4.464l0.704-5.696h-5.168v-3.92c0-1.648 0.448-2.768 2.736-2.768z"></path>
</symbol>
<symbol id="icon-linkedin" viewBox="0 0 32 32">
<path d="M32 32v-11.744c0-5.728-1.232-10.16-7.952-10.16-0.076-0.003-0.166-0.005-0.256-0.005-2.555 0-4.788 1.376-5.999 3.428l-0.018 0.032h-0.096v-2.912h-6.368v21.36h6.64v-10.576c0-2.784 0.528-5.488 3.968-5.488 3.408 0 3.456 3.184 3.456 5.664v10.4h6.624zM0.528 10.64h6.64v21.36h-6.64v-21.36zM3.84 0c-2.121 0-3.84 1.719-3.84 3.84v0c-0 0.005-0 0.010-0 0.016 0 2.127 1.715 3.854 3.838 3.872h0.002c2.128 0 3.84-1.76 3.84-3.888 0-2.121-1.719-3.84-3.84-3.84v0z"></path>
</symbol>
<symbol id="icon-astronaut" viewBox="0 0 32 32">
<path fill="#2196f3" style="fill: var(--color2, #2196f3)" d="M31.973 4.526c-0.059-0.192-0.229-0.334-0.43-0.366l-1.911-0.274-0.855-1.737c-0.178-0.361-0.777-0.361-0.955 0l-0.85 1.737-1.911 0.274c-0.262 0.038-0.46 0.261-0.46 0.53 0 0.151 0.063 0.287 0.163 0.385l0 0 1.385 1.344-0.325 1.902c-0.005 0.026-0.007 0.056-0.007 0.087 0 0.295 0.239 0.535 0.535 0.535 0.089 0 0.174-0.022 0.248-0.061l-0.003 0.001 1.71-0.896 1.705 0.896c0.072 0.039 0.158 0.062 0.25 0.062 0.295 0 0.535-0.239 0.535-0.535 0-0.032-0.003-0.063-0.008-0.093l0 0.003-0.329-1.902 1.385-1.349c0.146-0.137 0.197-0.352 0.137-0.549zM29.513 5.851c-0.128 0.123-0.183 0.297-0.155 0.471l0.192 1.115-1.001-0.526c-0.072-0.039-0.158-0.062-0.249-0.062s-0.177 0.023-0.252 0.064l0.003-0.001-1.001 0.526 0.192-1.115c0.032-0.174-0.027-0.347-0.151-0.471l-0.814-0.791 1.12-0.16c0.174-0.027 0.325-0.137 0.402-0.293l0.503-1.015 0.498 1.015c0.078 0.155 0.229 0.265 0.402 0.293l1.12 0.16-0.809 0.791zM26.135 20.526h-1.070v1.065h1.070v-1.070zM26.135 22.656h-1.070v1.065h1.070v-1.065zM27.2 21.591h-1.065v1.065h1.065v-1.065zM25.065 21.591h-1.065v1.065h1.065v-1.065zM22.4 26.391h-1.065v1.065h1.065v-1.065zM22.4 28.526h-1.065v1.065h1.065v-1.070zM23.465 27.456h-1.065v1.065h1.065v-1.065zM21.335 27.456h-1.070v1.065h1.070v-1.065zM16 24.256h-1.065v1.065h1.065v-1.065zM16 26.391h-1.065v1.065h1.065v-1.065zM17.065 25.326h-1.065v1.065h1.065v-1.070zM14.935 25.326h-1.070v1.065h1.070v-1.070zM5.865 6.126h-1.065v1.065h1.065v-1.070zM5.865 8.256h-1.065v1.065h1.065v-1.065zM6.935 7.191h-1.070v1.065h1.070v-1.065zM4.8 7.191h-1.065v1.065h1.065v-1.065z"></path>
<path fill="#212121" style="fill: var(--color3, #212121)" d="M24.713 14.158c-0.28-0.376-0.699-0.636-1.179-0.703l-0.009-0.001c-0.076-0.012-0.164-0.018-0.253-0.018-0.411 0-0.789 0.139-1.090 0.373l0.004-0.003-1.248 0.96-1.902 1.417-1.358-0.539c2.423-1.088 4.114-3.506 4.114-6.322 0-3.822-3.122-6.93-6.962-6.93s-6.958 3.109-6.958 6.93c0 1.39 0.411 2.674 1.12 3.762l-2.77-0.027-0.023 0.005c-0.055 0-0.105 0.014-0.155 0.032l-0.037 0.014-0.023 0.005-3.232 1.6-1.893 0.91c-0.506 0.32-0.837 0.877-0.837 1.511 0 0.985 0.798 1.783 1.783 1.783 0.303 0 0.588-0.075 0.838-0.209l-0.010 0.005 1.385-0.736 2.263-1.17 1.358-0.009-6.779 6.757c-0.306 0.299-0.496 0.716-0.496 1.177s0.19 0.878 0.495 1.177l0 0c0.302 0.302 0.719 0.488 1.179 0.488s0.878-0.187 1.179-0.488v0l1.307-1.312 1.742-1.298 0.901 0.896-1.76 1.755-1.339 1.33c-0.307 0.299-0.498 0.717-0.498 1.179s0.191 0.88 0.498 1.179l0 0c0.302 0.302 0.719 0.488 1.179 0.488s0.878-0.187 1.179-0.488v0l3.483-3.47 1.015-1.006h-0.005l0.018-0.018 5.166-5.659 3.474 0.498c0.019 0.003 0.041 0.004 0.063 0.004 0.071 0 0.139-0.015 0.201-0.042l-0.003 0.001 0.050-0.023c0.018-0.009 0.041-0.014 0.059-0.027l3.214-2.13 0.027-0.032 0.041-0.023 1.271-1.193c0.347-0.326 0.562-0.788 0.562-1.3 0-0.401-0.132-0.771-0.355-1.068l0.003 0.005zM2.13 17.769c-0.109 0.071-0.243 0.113-0.386 0.113-0.396 0-0.716-0.321-0.716-0.716 0-0.252 0.13-0.474 0.327-0.602l0.003-0.002 1.317-0.631 0.315 0.923 0.133 0.389-0.992 0.526zM5.627 15.941l-1.55 0.8-0.256-0.741-0.183-0.535 2.030-1.006-0.041 1.486zM20.727 9.326c0 0.919-0.219 1.783-0.599 2.56l-4.183-1.897c-0.042-0.576-0.341-1.074-0.78-1.386l-0.006-0.004 1.463-4.859c2.377 0.754 4.105 2.971 4.105 5.586zM8.937 9.326c0.011-3.243 2.643-5.868 5.888-5.868 0.266 0 0.528 0.018 0.784 0.052l-0.030-0.003-1.435 4.754-0.055-0.005c0 0 0 0-0 0-1.032 0-1.869 0.834-1.874 1.865v0.001c0.012 1.026 0.847 1.852 1.874 1.852 0.687 0 1.287-0.369 1.614-0.92l0.005-0.009 3.858 1.755c-1.085 1.458-2.804 2.393-4.741 2.393-3.245 0-5.878-2.624-5.893-5.866v-0.001zM14.894 10.126c0 0.446-0.361 0.807-0.807 0.807s-0.807-0.361-0.807-0.807v0c0-0.439 0.366-0.8 0.809-0.8s0.805 0.361 0.805 0.8zM2.469 25.147c-0.233 0.233-0.617 0.229-0.855 0-0.109-0.108-0.177-0.257-0.177-0.423s0.068-0.315 0.177-0.423l0.96-0.96 0.855 0.85-0.965 0.951zM5.682 28.878c-0.233 0.238-0.617 0.238-0.855 0-0.108-0.108-0.174-0.256-0.174-0.421s0.067-0.313 0.174-0.421v0l0.96-0.96 0.407 0.402 0.448 0.448-0.96 0.951zM9.166 25.413l-1.769 1.76-0.85-0.85 1.765-1.751c0.041-0.046 0.064-0.091 0.091-0.137l0.023-0.046c0.018-0.037 0.023-0.082 0.027-0.123 0-0.027 0.014-0.046 0.014-0.073 0-0.037-0.014-0.073-0.018-0.105l-0.018-0.096c-0.023-0.050-0.055-0.091-0.091-0.137l-0.027-0.041-1.609-1.6c-0.014-0.018-0.037-0.023-0.055-0.037-0.032-0.023-0.059-0.046-0.091-0.059-0.026-0.012-0.056-0.023-0.088-0.031l-0.003-0.001c-0.029-0.009-0.063-0.015-0.099-0.018l-0.002-0h-0.096l-0.105 0.023c-0.032 0.009-0.064 0.027-0.091 0.046-0.023 0.009-0.046 0.014-0.064 0.027l-1.774 1.326-0.901-0.901 2.4-2.386 4.361 4.293-0.928 0.914zM15.982 18.395h-0.046c-0.007-0-0.016-0.001-0.025-0.001-0.137 0-0.262 0.052-0.355 0.138l0-0-0.041 0.032-4.699 5.143-4.325-4.251 2.834-2.821c0.098-0.097 0.158-0.231 0.158-0.379 0-0.295-0.239-0.535-0.535-0.535-0.002 0-0.005 0-0.007 0h0l-2.217 0.014 0.027-1.609 3.104 0.027c1.263 1.296 3.026 2.099 4.977 2.099 0.455 0 0.899-0.044 1.33-0.127l-0.044 0.007c0.037 0.032 0.078 0.064 0.128 0.087l2.409 0.96 0.151 0.759 0.183 0.882-3.008-0.425zM20.023 18.574l-0.311-1.559 1.445-1.079 0.379 0.503 0.567 0.754-2.080 1.381zM23.781 15.739l-0.841 0.786-0.928-1.234 0.827-0.64c0.122-0.093 0.276-0.149 0.443-0.149 0.037 0 0.074 0.003 0.11 0.008l-0.004-0.001c0.352 0.050 0.62 0.349 0.62 0.711 0 0.206-0.087 0.392-0.226 0.523l-0 0z"></path>
<path fill="#212121" style="fill: var(--color3, #212121)" d="M13.6 18.546l-2.139-2.135c-0.097-0.096-0.23-0.156-0.377-0.156s-0.28 0.059-0.377 0.156l0-0-2.144 2.135c-0.096 0.097-0.156 0.23-0.156 0.377s0.059 0.28 0.156 0.377l-0-0 2.144 2.135c0.097 0.096 0.23 0.156 0.377 0.156s0.28-0.059 0.377-0.156l-0 0 2.139-2.135c0.096-0.097 0.156-0.23 0.156-0.377s-0.059-0.28-0.156-0.377l0 0zM11.086 20.302l-1.394-1.376 1.385-1.381 1.39 1.381-1.39 1.381zM17.166 5.074l-0.261 1.033c0.073 0.018 1.737 0.453 1.737 2.149h1.070c0-2.016-1.669-2.967-2.546-3.186zM19.712 9.326h-1.070v1.065h1.070v-1.070z"></path>
</symbol>
<symbol id="icon-diagram" viewBox="0 0 32 32">
<path fill="#2196f3" style="fill: var(--color2, #2196f3)" d="M14.926 14.967h1.065v4.795h-1.065v-4.8zM19.191 17.097h1.065v2.665h-1.065v-2.665zM10.661 18.697h1.065v1.065h-1.065v-1.065zM7.461 18.162h1.070v1.6h-1.070v-1.6z"></path>
<path fill="#212121" style="fill: var(--color3, #212121)" d="M1.6 28.293h25.586c0.884 0 1.6-0.716 1.6-1.6v0-2.135c0-0.884-0.716-1.6-1.6-1.6v0h-0.535v-13.285l3.031-2.871c0.207 0.104 0.45 0.164 0.708 0.164 0.889 0 1.609-0.72 1.609-1.609s-0.72-1.609-1.609-1.609c-0.889 0-1.609 0.72-1.609 1.609 0 0.247 0.056 0.482 0.156 0.691l-0.004-0.010-2.281 2.162v-1.23c0-0.884-0.716-1.6-1.6-1.6v0h-21.321c-0.884 0-1.6 0.716-1.6 1.6v0 15.995h-0.53c-0.884 0-1.6 0.716-1.6 1.6v0 2.13c0 0.884 0.716 1.6 1.6 1.6v0zM30.386 4.837c0.015-0.001 0.032-0.002 0.049-0.002 0.295 0 0.535 0.239 0.535 0.535s-0.239 0.535-0.535 0.535c-0.017 0-0.035-0.001-0.052-0.002l0.002 0c-0.273-0.026-0.485-0.255-0.485-0.533s0.212-0.506 0.483-0.532l0.002-0zM3.2 6.967c0-0.293 0.238-0.53 0.53-0.53h21.321c0.297 0 0.535 0.238 0.535 0.53v2.24l-1.065 1.015v-2.185c0-0.297-0.238-0.535-0.535-0.535h-19.186c-0.293 0-0.53 0.238-0.53 0.535v13.326c0 0.293 0.238 0.53 0.53 0.53h19.191c0.297 0 0.535-0.238 0.535-0.53v-9.673l1.065-1.010v12.283h-22.391v-15.995zM8 13.897c-0.004-0-0.009-0-0.013-0-0.884 0-1.6 0.716-1.6 1.6s0.716 1.6 1.6 1.6c0.434 0 0.827-0.173 1.115-0.453l-0 0 1.856 0.933c0.215 0.105 0.475 0.055 0.635-0.123l3.936-4.434 3.872 2.903c0.21 0.155 0.503 0.137 0.686-0.037l3.369-3.191v8.137h-18.126v-12.27h18.126v2.661l-3.771 3.57-3.904-2.926c-0.088-0.067-0.2-0.107-0.322-0.107-0.159 0-0.302 0.070-0.4 0.18l-0 0.001-3.991 4.494-1.495-0.75c0.014-0.064 0.018-0.128 0.023-0.192 0-0.884-0.716-1.6-1.6-1.6v0zM8.53 15.497c0 0.295-0.239 0.535-0.535 0.535s-0.535-0.239-0.535-0.535v0c0-0.295 0.239-0.535 0.535-0.535s0.535 0.239 0.535 0.535v0zM11.73 24.027h5.321v0.53c0 0.297-0.238 0.535-0.53 0.535h-4.265c-0.293 0-0.535-0.238-0.535-0.535v-0.53zM1.061 24.558c0-0.293 0.238-0.53 0.535-0.53h9.061v0.53c0 0.884 0.716 1.6 1.6 1.6v0h4.265c0.884 0 1.6-0.716 1.6-1.6v0-0.53h9.061c0.293 0 0.53 0.238 0.53 0.53v2.135c0 0.293-0.238 0.53-0.53 0.53h-25.582c-0.297 0-0.535-0.238-0.535-0.53v-2.135z"></path>
</symbol>
<symbol id="icon-clock" viewBox="0 0 32 32">
<path fill="#212121" style="fill: var(--color3, #212121)" d="M31.296 15.301c-0.001-8.452-6.853-15.303-15.305-15.303s-15.305 6.852-15.305 15.305c0 6.79 4.422 12.548 10.543 14.55l0.108 0.031c0.057 0.017 0.123 0.027 0.191 0.027 0.125 0 0.242-0.034 0.343-0.093l-0.003 0.002c0.137-0.082 0.233-0.206 0.283-0.357l3.863-12.251c1.048-0.009 1.895-0.861 1.895-1.911 0-1.055-0.856-1.911-1.911-1.911-0.3 0-0.584 0.069-0.836 0.192l0.011-0.005-5.102-5.106c-0.112-0.098-0.259-0.158-0.421-0.158-0.353 0-0.64 0.287-0.64 0.64 0 0.16 0.059 0.307 0.156 0.419l-0.001-0.001 5.106 5.111c-0.121 0.241-0.192 0.526-0.192 0.826 0 0.601 0.283 1.136 0.723 1.479l0.004 0.003-3.685 11.671c-5.408-2.035-9.186-7.165-9.186-13.177 0-7.756 6.287-14.043 14.043-14.043s14.043 6.287 14.043 14.043c0 5.688-3.381 10.586-8.243 12.793l-0.088 0.036-0.398-1.874c-0.066-0.289-0.32-0.502-0.625-0.502-0.162 0-0.31 0.060-0.423 0.159l0.001-0.001-3.84 3.429c-0.127 0.117-0.207 0.285-0.207 0.471 0 0.282 0.182 0.521 0.435 0.607l0.005 0.001 4.901 1.563c0.057 0.019 0.123 0.029 0.192 0.029 0.353 0 0.64-0.287 0.64-0.64 0-0.046-0.005-0.091-0.014-0.134l0.001 0.004-0.393-1.838c5.529-2.374 9.33-7.772 9.33-14.057 0-0.011 0-0.022-0-0.034v0.002zM15.991 14.661c0.353 0 0.64 0.287 0.64 0.64s-0.287 0.64-0.64 0.64v0c-0.353 0-0.64-0.287-0.64-0.64s0.287-0.64 0.64-0.64v0zM18.094 29.527l2.185-1.947 0.599 2.839-2.789-0.891z"></path>
<path fill="#2196f3" style="fill: var(--color2, #2196f3)" d="M15.355 3.186v1.275c-0.001 0.016-0.002 0.035-0.002 0.054 0 0.353 0.287 0.64 0.64 0.64s0.64-0.287 0.64-0.64c0-0.019-0.001-0.038-0.002-0.056l0 0.002v-1.28c0-0.353-0.287-0.64-0.64-0.64s-0.64 0.287-0.64 0.64v0zM3.877 14.665c-0.329 0.029-0.586 0.303-0.586 0.638s0.257 0.609 0.584 0.638l0.002 0h1.275c0.353 0 0.64-0.287 0.64-0.64s-0.287-0.64-0.64-0.64h-1.28zM28.11 15.941c0.353 0 0.64-0.287 0.64-0.64s-0.287-0.64-0.64-0.64h-1.28c-0.353 0-0.64 0.287-0.64 0.64s0.287 0.64 0.64 0.64h1.28z"></path>
</symbol>
<symbol id="icon-antenna" viewBox="0 0 32 32">
<path fill="#212121" style="fill: var(--color3, #212121)" d="M30.775 22.098l-8.443-8.503 0.937-4.617c0.242 0.091 0.498 0.142 0.759 0.146h0.005c0.006 0 0.014 0 0.022 0 1.192 0 2.158-0.966 2.158-2.158s-0.966-2.158-2.158-2.158c-1.192 0-2.158 0.966-2.158 2.158 0 0.259 0.046 0.507 0.129 0.737l-0.005-0.015-4.955 0.603-8.091-8.133c-0.097-0.098-0.231-0.159-0.379-0.16h-0c-0.137 0-0.274 0.055-0.37 0.155l-1.513 1.504c-0.21 0.21-0.21 0.549 0 0.754l0.814 0.823c-1.143 2.062-1.816 4.522-1.816 7.14 0 4.106 1.656 7.824 4.336 10.525l-0.001-0.001c0.046 0.046 0.091 0.073 0.146 0.101-0.032 0.183-0.050 0.366-0.050 0.549v6.185h-6.4c0 0 0 0 0 0-1.473 0-2.667 1.193-2.67 2.665v1.065c0 0.297 0.238 0.535 0.535 0.535h24.535c0.293 0 0.53-0.238 0.53-0.535v-1.065c-0.003-1.471-1.194-2.663-2.665-2.665h-6.4v-2.743c0.915 0.2 1.966 0.315 3.043 0.315 2.581 0 5.008-0.659 7.123-1.817l-0.077 0.039 0.818 0.823c0.096 0.101 0.233 0.16 0.375 0.16 0.137 0 0.274-0.059 0.375-0.155l1.509-1.509c0.21-0.206 0.21-0.544 0-0.75zM23.278 6.235c0.193-0.192 0.458-0.311 0.752-0.311 0.588 0 1.065 0.477 1.065 1.065s-0.476 1.064-1.063 1.065h-0c-0.001 0-0.001 0-0.002 0-0.588 0-1.065-0.477-1.065-1.065 0-0.297 0.122-0.566 0.318-0.759l0-0zM22.025 9.737l-0.599 2.944-1.175-1.179 1.774-1.765zM21.417 8.837l-1.92 1.906-1.486-1.49 3.406-0.416zM24.005 28.8c0.884 0 1.6 0.716 1.6 1.6v0 0.535h-23.465v-0.535c0-0.884 0.716-1.6 1.6-1.6v0h20.261zM16.539 26.665v1.070h-5.339v-1.070h5.335zM11.2 25.6v-4.055c0-1.294 1.198-2.345 2.665-2.345 1.472 0 2.67 1.051 2.67 2.345v4.055h-5.335zM17.6 23.904v-2.359c0-1.879-1.673-3.41-3.735-3.41-0.018-0-0.040-0-0.062-0-1.351 0-2.537 0.705-3.211 1.768l-0.009 0.016c-2.359-2.481-3.809-5.845-3.809-9.548 0-2.314 0.567-4.496 1.569-6.415l-0.036 0.077 18.606 18.711c-1.822 0.946-3.978 1.501-6.264 1.501-1.080 0-2.132-0.124-3.141-0.358l0.093 0.018zM28.891 23.218l-0.754-0.754-20.302-20.425 0.754-0.75 21.061 21.179-0.759 0.75z"></path>
<path fill="#2196f3" style="fill: var(--color2, #2196f3)" d="M13.874 20.265c-0.001 0-0.003 0-0.005 0-0.884 0-1.6 0.716-1.6 1.6 0 0.882 0.714 1.597 1.595 1.6h0.005c0.001 0 0.001 0 0.002 0 0.884 0 1.6-0.716 1.6-1.6s-0.715-1.599-1.598-1.6h-0zM14.249 22.245c-0.097 0.096-0.23 0.155-0.377 0.155-0.295 0-0.535-0.239-0.535-0.535s0.238-0.533 0.532-0.535h0c0.294 0.001 0.533 0.24 0.533 0.535 0 0.148-0.060 0.283-0.158 0.379l-0 0z"></path>
</symbol>
<symbol id="icon-smartphone" viewBox="0 0 32 32">
<path d="M23 0h-14c-1.66 0-3 1.34-3 3v26c0 1.66 1.34 3 3 3h14c1.66 0 3-1.34 3-3v-26c0-1.66-1.34-3-3-3zM9 2h14c0.56 0 1 0.44 1 1v21h-16v-21c0-0.56 0.44-1 1-1zM23 30h-14c-0.552 0-1-0.448-1-1v0-3h16v3c0 0.552-0.448 1-1 1v0z"></path>
<path d="M10.7 27.48c0.4 0.36 0.4 0.96 0 1.32-0.186 0.164-0.431 0.264-0.7 0.264s-0.514-0.1-0.701-0.265l0.001 0.001c-0.177-0.165-0.288-0.399-0.288-0.66s0.111-0.495 0.288-0.659l0.001-0.001c0.4-0.36 1-0.36 1.4 0z"></path>
</symbol>
<symbol id="icon-mail" viewBox="0 0 32 32">
<path d="M29 4h-26c-1.66 0-3 1.34-3 3v18c0 1.66 1.34 3 3 3h26c1.66 0 3-1.34 3-3v-18c0-1.66-1.34-3-3-3zM29 6c0.002-0 0.005-0 0.008-0 0.142 0 0.276 0.029 0.398 0.083l-0.006-0.003-13.4 11.6-13.4-11.6c0.116-0.051 0.25-0.080 0.392-0.080 0.003 0 0.006 0 0.008 0h26zM29 26h-26c-0.552 0-1-0.448-1-1v0-16.8l13.34 11.56c0.175 0.154 0.407 0.249 0.66 0.249s0.485-0.094 0.661-0.25l-0.001 0.001 13.34-11.56v16.8c0 0.552-0.448 1-1 1v0z"></path>
</symbol>
<symbol id="icon-Newsletter" viewBox="0 0 139 32">
<path fill="#fff" style="fill: var(--color1, #fff)" d="M3.904 19.328h6.112v2.005h-9.237v-1.472l5.995-8.64h-5.995v-2.027h9.109v1.44l-5.984 8.693zM17.696 21.333c-0.117-0.235-0.204-0.509-0.244-0.797l-0.002-0.014c-0.587 0.651-1.344 0.981-2.272 0.981-0.885 0-1.621-0.256-2.208-0.768-0.525-0.456-0.854-1.125-0.854-1.87 0-0.025 0-0.050 0.001-0.075l-0 0.004c0-0.96 0.341-1.685 1.045-2.197 0.783-0.489 1.734-0.778 2.753-0.778 0.116 0 0.231 0.004 0.345 0.011l-0.016-0.001h1.109v-0.523c0-0.416-0.107-0.747-0.331-1.003-0.213-0.245-0.544-0.373-1.013-0.373-0.405 0-0.715 0.107-0.96 0.299-0.204 0.182-0.332 0.447-0.332 0.741 0 0.021 0.001 0.041 0.002 0.062l-0-0.003h-2.411c0-0.533 0.16-1.013 0.48-1.451 0.32-0.448 0.779-0.8 1.365-1.045 0.564-0.243 1.221-0.385 1.911-0.385 0.026 0 0.052 0 0.077 0.001l-0.004-0c1.109 0 1.995 0.277 2.645 0.843 0.651 0.555 0.981 1.333 0.981 2.347v3.915c0 0.853 0.128 1.493 0.363 1.941v0.139h-2.432zM15.701 19.659c0.352 0 0.683-0.075 0.981-0.235s0.523-0.373 0.672-0.64v-1.547h-0.907c-1.205 0-1.845 0.416-1.92 1.248l-0.011 0.139c0 0.299 0.107 0.544 0.32 0.747 0.213 0.192 0.491 0.288 0.853 0.288zM30.752 16.907c0 1.387-0.32 2.507-0.949 3.339-0.557 0.767-1.45 1.26-2.459 1.26-0.032 0-0.063-0-0.095-0.001l0.005 0c-0.907 0-1.643-0.32-2.208-0.96v4.256h-2.4v-12.48h2.229l0.085 0.875c0.522-0.641 1.312-1.047 2.196-1.047 0.031 0 0.061 0 0.091 0.001l-0.004-0c1.109 0 1.973 0.416 2.592 1.237s0.917 1.952 0.917 3.392v0.128zM28.352 16.736c0-0.843-0.149-1.493-0.459-1.941-0.258-0.413-0.71-0.684-1.225-0.684-0.019 0-0.038 0-0.057 0.001l0.003-0c-0.757 0-1.28 0.288-1.568 0.853v3.701c0.299 0.597 0.821 0.896 1.579 0.896 1.152 0 1.728-0.949 1.728-2.827zM35.819 21.333h-2.411v-9.013h2.411v9.013zM33.259 9.984c0-0.363 0.128-0.661 0.363-0.896 0.245-0.235 0.576-0.341 0.992-0.341s0.747 0.107 0.981 0.341c0.245 0.235 0.373 0.533 0.373 0.896s-0.128 0.661-0.384 0.896c-0.235 0.235-0.565 0.352-0.96 0.352-0.416 0-0.747-0.107-0.992-0.352-0.245-0.235-0.373-0.533-0.373-0.896zM43.712 18.837c0-0.288-0.139-0.523-0.427-0.683-0.408-0.212-0.881-0.372-1.38-0.455l-0.028-0.004c-2.133-0.459-3.211-1.365-3.211-2.741 0-0.8 0.32-1.461 0.992-1.995 0.661-0.533 1.536-0.811 2.603-0.811 1.141 0 2.059 0.267 2.741 0.811 0.693 0.533 1.035 1.237 1.035 2.101h-2.411c0-0.352-0.107-0.64-0.331-0.853-0.213-0.224-0.565-0.341-1.045-0.341-0.405 0-0.715 0.096-0.939 0.277-0.213 0.181-0.331 0.416-0.331 0.693 0 0.267 0.128 0.491 0.373 0.651 0.256 0.16 0.683 0.309 1.28 0.427 0.608 0.117 1.109 0.256 1.525 0.405 1.269 0.459 1.899 1.28 1.899 2.421 0 0.821-0.352 1.493-1.056 2.005-0.709 0.471-1.58 0.752-2.516 0.752-0.075 0-0.151-0.002-0.225-0.005l0.011 0c-0.747 0-1.429-0.128-2.027-0.395-0.576-0.267-1.035-0.64-1.365-1.109-0.312-0.422-0.5-0.951-0.501-1.525v-0h2.283c0.021 0.427 0.181 0.757 0.48 0.981 0.288 0.235 0.683 0.341 1.173 0.341 0.469 0 0.811-0.085 1.045-0.256 0.22-0.15 0.363-0.399 0.363-0.681 0-0.004-0-0.008-0-0.013v0.001zM51.413 19.392h4.405v1.941h-7.477v-1.472l4.235-5.6h-4.117v-1.941h7.232v1.419l-4.277 5.653zM68.512 18.837c0-0.288-0.149-0.523-0.448-0.683-0.401-0.21-0.867-0.369-1.358-0.455l-0.029-0.004c-2.155-0.459-3.221-1.365-3.221-2.741 0-0.8 0.32-1.461 0.992-1.995 0.661-0.533 1.536-0.811 2.603-0.811 1.141 0 2.059 0.267 2.741 0.811 0.693 0.533 1.035 1.237 1.035 2.101h-2.411c0-0.352-0.107-0.64-0.331-0.853-0.213-0.224-0.565-0.341-1.045-0.341-0.405 0-0.715 0.096-0.939 0.277-0.213 0.181-0.331 0.416-0.331 0.693 0 0.267 0.128 0.491 0.373 0.651 0.256 0.16 0.683 0.309 1.28 0.427s1.109 0.256 1.515 0.405c1.28 0.459 1.92 1.28 1.92 2.421 0 0.821-0.363 1.493-1.067 2.005-0.709 0.471-1.58 0.752-2.516 0.752-0.076 0-0.151-0.002-0.225-0.005l0.011 0c-0.757 0-1.429-0.128-2.027-0.395-0.576-0.267-1.035-0.64-1.365-1.109-0.312-0.422-0.5-0.951-0.501-1.525v-0h2.283c0.021 0.427 0.181 0.757 0.48 0.981 0.288 0.235 0.683 0.341 1.173 0.341 0.469 0 0.811-0.085 1.045-0.256 0.22-0.15 0.363-0.399 0.363-0.681 0-0.004-0-0.008-0-0.013v0.001zM75.979 21.333h-2.421v-9.013h2.421v9.013zM73.419 9.984c0-0.363 0.117-0.661 0.352-0.896 0.245-0.235 0.576-0.341 0.992-0.341s0.747 0.107 0.992 0.341c0.245 0.235 0.363 0.533 0.363 0.896s-0.128 0.661-0.373 0.896c-0.245 0.235-0.576 0.352-0.981 0.352s-0.725-0.107-0.981-0.352c-0.245-0.235-0.363-0.533-0.363-0.896zM86.656 19.872c-0.341 0.512-0.832 0.907-1.472 1.205-0.357 0.197-0.666 0.423-0.941 0.684l0.002-0.002c-0.224 0.224-0.341 0.491-0.341 0.779 0 0.363 0.192 0.544 0.555 0.544 0.181 0 0.405-0.053 0.661-0.171l0.245 1.312c-0.405 0.245-0.853 0.363-1.376 0.363-0.555 0-1.013-0.149-1.365-0.459-0.329-0.294-0.536-0.72-0.536-1.195 0-0.030 0.001-0.060 0.002-0.090l-0 0.004c0-0.533 0.181-0.992 0.533-1.376-1.141-0.063-2.152-0.567-2.878-1.342l-0.002-0.002c-0.665-0.766-1.071-1.773-1.071-2.875 0-0.066 0.001-0.131 0.004-0.196l-0 0.009v-0.256c0-0.907 0.171-1.707 0.533-2.432 0.341-0.715 0.832-1.259 1.472-1.643 0.64-0.395 1.387-0.587 2.197-0.587 0.057-0.003 0.123-0.005 0.19-0.005 1.072 0 2.039 0.452 2.72 1.176l0.002 0.002c0.715 0.768 1.067 1.877 1.067 3.307v0.981h-5.739c0.075 0.587 0.309 1.067 0.693 1.419 0.395 0.352 0.896 0.533 1.493 0.533 0.928 0 1.653-0.341 2.176-1.013l1.184 1.323zM82.869 14.101c-0.48 0-0.875 0.16-1.173 0.48-0.288 0.32-0.48 0.789-0.565 1.387h3.349v-0.192c0-0.533-0.149-0.949-0.427-1.237s-0.672-0.437-1.184-0.437zM138.667 3.2l-25.6 14.4 8.181 3.029 12.619-11.829-9.6 12.949v7.051l4.587-5.355 5.813 2.155 4-22.4z"></path>
</symbol>
<symbol id="icon-person" viewBox="0 0 32 32">
<path d="M16.010 16.010c2.947 0 5.337-2.389 5.337-5.337s-2.389-5.337-5.337-5.337v0c-2.947 0-5.337 2.389-5.337 5.337s2.389 5.337 5.337 5.337v0zM16.010 18.679c-3.558 0-10.674 1.779-10.674 5.337v1.334c0 0.729 0.605 1.334 1.334 1.334h18.679c0.729 0 1.334-0.605 1.334-1.334v-1.334c0-3.558-7.116-5.337-10.674-5.337z"></path>
</symbol>
<symbol id="icon-phone" viewBox="0 0 32 32">
<path d="M24.905 19.782l-3.273-0.356c-0.783-0.107-1.565 0.178-2.117 0.712l-2.366 2.384c-3.672-1.895-6.591-4.813-8.435-8.377l-0.051-0.108 2.384-2.384c0.551-0.551 0.818-1.334 0.729-2.117l-0.356-3.238c-0.156-1.289-1.244-2.277-2.562-2.277-0.006 0-0.012 0-0.019 0h-2.223c-1.459 0-2.668 1.21-2.579 2.668 0.716 10.999 9.459 19.742 20.393 20.454l0.065 0.003c1.459 0.089 2.668-1.121 2.668-2.579v-2.224c0-1.316-0.961-2.402-2.259-2.562z"></path>
</symbol>
<symbol id="icon-email2" viewBox="0 0 43 32">
<path d="M37.342 0.006h-32.008c-2.187 0-4.001 1.814-4.001 4.001v24.006c0 2.187 1.814 4.001 4.001 4.001h32.008c2.187 0 4.001-1.814 4.001-4.001v-24.006c0-2.187-1.814-4.001-4.001-4.001zM36.542 8.515l-14.137 8.829c-0.303 0.191-0.672 0.303-1.067 0.303s-0.764-0.113-1.075-0.308l0.008 0.005-14.137-8.802c-0.546-0.292-0.911-0.858-0.911-1.51 0-0.943 0.764-1.707 1.707-1.707 0.383 0 0.737 0.126 1.022 0.34l-0.004-0.003 13.39 8.349 13.417-8.375c0.289-0.233 0.661-0.374 1.066-0.374 0.943 0 1.707 0.764 1.707 1.707 0 0.681-0.399 1.269-0.975 1.543l-0.010 0.004z"></path>
</symbol>
<symbol id="icon-x" viewBox="0 0 32 32">
<path d="M32.011 3.201l-3.201-3.201-12.805 12.805-12.805-12.805-3.201 3.201 12.805 12.805-12.805 12.805 3.201 3.201 12.805-12.805 12.805 12.805 3.201-3.201-12.805-12.805 12.805-12.805z"></path>
</symbol>
</defs>
</svg>